<?xml version="1.0" encoding="utf-8"?>
<!-- Generator: Adobe Illustrator 22.0.1, SVG Export Plug-In . SVG Version: 6.00 Build 0)  -->
<svg version="1.1" id="Capa_1" xmlns="http://www.w3.org/2000/svg" xmlns:xlink="http://www.w3.org/1999/xlink" x="0px" y="0px"
	 viewBox="0 0 512 512" style="enable-background:new 0 0 512 512;" xml:space="preserve">
<style type="text/css">
	.st0{fill:#CD3033;}
</style>
<g>
	<g>
		<path class="st0" d="M480.4,84.3l-0.7-0.1C402,70.6,328.5,42.7,261.2,1.5c-3.2-2-7.3-2-10.5,0C183.9,42.7,110.9,70.4,33.6,84
			l-2,0.4c-4.8,0.8-8.3,5-8.3,9.8v130.9c0,66.7,23,132,64.8,184c41.8,52,100.7,88.4,165.8,102.7c0.7,0.2,1.4,0.2,2.1,0.2
			c0.7,0,1.4-0.1,2.1-0.2c65.1-14.3,124-50.8,165.8-102.8c41.8-52,64.8-117.3,64.8-184V94.2C488.7,89.3,485.2,85.2,480.4,84.3z
			 M468.7,224.9c0,126.7-89.3,238.6-212.7,266.8C132.6,463.6,43.3,351.8,43.3,225.1V102.6c75.5-14,147-41.2,212.7-80.8
			c65.8,39.5,137.3,66.7,212.7,80.8V224.9z"/>
	</g>
</g>
<g>
	<g>
		<g>
			<path class="st0" d="M255.8,72.7c1.7,0,3.4-0.4,4.9-1.3l0.1-0.1c0,0,0.1,0,0.1-0.1c4.8-2.7,6.5-8.8,3.8-13.6
				c-2.7-4.8-8.8-6.5-13.6-3.8l-0.2,0.1c-4.8,2.7-6.5,8.8-3.7,13.6C248.9,70.8,252.3,72.7,255.8,72.7z"/>
			<path class="st0" d="M211.7,74.2c-43.2,20.6-88.7,36.5-135.4,47.3c-4.5,1-7.8,5.1-7.8,9.7v93.7c0,10.8,0.7,21.8,2.2,32.5
				c0.7,5,5,8.7,9.9,8.7c0.4,0,0.9,0,1.3-0.1c5.5-0.7,9.3-5.8,8.6-11.2c-1.3-9.9-2-19.9-2-29.9v-85.8c45.4-11,89.7-26.8,131.8-46.9
				c5-2.4,7.1-8.3,4.7-13.3C222.7,74,216.7,71.8,211.7,74.2z"/>
			<path class="st0" d="M433.4,121.2c-5.5,0-10,4.5-10,10v93.7c0,88.9-52.5,170.5-133.8,207.8c-5,2.3-7.2,8.2-4.9,13.3
				c1.7,3.7,5.3,5.8,9.1,5.8c1.4,0,2.8-0.3,4.2-0.9c42.9-19.7,79.3-51.2,105.2-91.1c26.3-40.5,40.3-87.1,40.3-134.8v-93.7
				C443.4,125.7,439,121.2,433.4,121.2z"/>
			<path class="st0" d="M253.8,445.7l-0.4,0.1c-5.3,1.4-8.5,6.9-7.1,12.2c1.2,4.5,5.2,7.4,9.7,7.4c0.8,0,1.7-0.1,2.6-0.3l0.4-0.1
				c5.3-1.4,8.5-6.9,7.1-12.2C264.6,447.4,259.2,444.2,253.8,445.7z"/>
		</g>
	</g>
</g>
<g>
	<g>
		<path class="st0" d="M390.1,257.9c6.5-10.6,4.9-24.1-4-32.8l-10.4-10.2c-1.4-1.3-2.1-3.2-1.9-5.1l1-14.6
			c0.9-12.4-6.8-23.7-18.8-27.3l-13.8-4.1c-1.8-0.6-3.3-1.9-4.1-3.6l-5.8-13.3c-4.9-11.3-17.3-17.8-29.4-15.5l-14,2.7
			c-1.9,0.4-3.8-0.1-5.3-1.3l-11.1-9c-9.6-7.8-23.6-7.8-33.3,0l-11.1,9c-1.5,1.2-3.4,1.7-5.3,1.3l-14-2.7
			c-12.1-2.4-24.5,4.1-29.4,15.5l-5.8,13.3c-0.8,1.8-2.3,3.1-4.1,3.6l-13.8,4.1c-11.9,3.6-19.7,14.8-18.8,27.3l1,14.6
			c0.1,1.9-0.6,3.8-1.9,5.1l-10.4,10.2c-8.8,8.7-10.5,22.2-4,32.8l7.7,12.5c1,1.6,1.2,3.6,0.7,5.4l-4.5,14
			c-3.8,11.8,1,24.5,11.7,30.9l12.5,7.4c1.6,1,2.8,2.6,3.1,4.5l2.4,14.4c2.1,12.3,12.3,21.4,24.8,22l14.3,0.7c1.9,0.1,3.7,1,4.9,2.6
			l8.7,11.4c5.1,6.7,13.1,10.4,21.2,10.4c3.8,0,7.6-0.8,11.1-2.5l12.9-6c1.7-0.8,3.8-0.8,5.5,0l12.9,6c11.2,5.2,24.8,1.9,32.3-8
			l8.7-11.4c1.2-1.5,2.9-2.5,4.9-2.6l14.3-0.7c12.5-0.6,22.7-9.7,24.8-22l2.5-14.4c0.3-1.9,1.4-3.5,3.1-4.5l12.5-7.4
			c10.7-6.4,15.5-19.1,11.7-30.9l-4.5-14c-0.6-1.8-0.3-3.8,0.7-5.4L390.1,257.9z M373.1,247.4l-7.7,12.5c-4.1,6.6-5,14.6-2.7,22
			l4.5,14c0.9,2.9-0.2,6-2.9,7.6l-12.5,7.4c-6.7,4-11.3,10.7-12.6,18.3l-2.5,14.4c-0.5,3-3,5.2-6.1,5.4l-14.3,0.7
			c-7.8,0.4-15,4.2-19.8,10.4l-8.7,11.4c-1.8,2.4-5.2,3.2-7.9,2l-12.9-6c-7.1-3.3-15.3-3.3-22.4,0l-12.9,6c-2.8,1.3-6.1,0.5-7.9-2
			l-8.7-11.4c-4.7-6.2-12-10-19.8-10.4l-14.3-0.7c-3.1-0.2-5.6-2.4-6.1-5.4l-2.4-14.4c-1.3-7.7-5.9-14.4-12.6-18.3l-12.5-7.4
			c-2.6-1.6-3.8-4.7-2.9-7.6l4.5-14c2.4-7.4,1.4-15.4-2.7-22l-7.7-12.5c-1.6-2.6-1.2-5.9,1-8l10.4-10.2c5.5-5.4,8.4-13,7.8-20.8
			l-1-14.6c-0.2-3.1,1.7-5.8,4.6-6.7l13.8-4.1c7.5-2.3,13.6-7.7,16.7-14.8l5.8-13.3c1-2.4,3.4-3.9,6-3.9c0.4,0,0.8,0,1.2,0.1l14,2.7
			c7.7,1.5,15.6-0.4,21.8-5.4l11.1-9c2.4-1.9,5.8-1.9,8.2,0l11.1,9c6.1,4.9,14,6.9,21.8,5.4l14-2.7c3-0.6,6,1,7.2,3.8l5.8,13.3
			c3.1,7.2,9.2,12.6,16.7,14.8l13.8,4.1c2.9,0.9,4.8,3.6,4.6,6.7l-1,14.6c-0.6,7.7,2.3,15.3,7.8,20.8l10.4,10.2
			C374.3,241.5,374.7,244.8,373.1,247.4z"/>
	</g>
</g>
<g>
	<g>
		<path class="st0" d="M282,204.9c-4.8-2.7-10.9-1-13.6,3.8l-53.8,95.2c-2.7,4.8-1,10.9,3.8,13.6c1.6,0.9,3.2,1.3,4.9,1.3
			c3.5,0,6.9-1.8,8.7-5.1l53.8-95.2C288.5,213.7,286.8,207.6,282,204.9z"/>
	</g>
</g>
<g>
	<g>
		<path class="st0" d="M290.9,264.5c-16.5,0-30,13.5-30,30s13.5,30,30,30s30-13.5,30-30S307.5,264.5,290.9,264.5z M290.9,304.5
			c-5.5,0-10-4.5-10-10s4.5-10,10-10s10,4.5,10,10C300.9,300,296.5,304.5,290.9,304.5z"/>
	</g>
</g>
<g>
	<g>
		<path class="st0" d="M221.1,187.5c-16.5,0-30,13.5-30,30s13.5,30,30,30s30-13.5,30-30C251.1,200.9,237.6,187.5,221.1,187.5z
			 M221.1,227.5c-5.5,0-10-4.5-10-10s4.5-10,10-10s10,4.5,10,10C231.1,223,226.6,227.5,221.1,227.5z"/>
	</g>
</g>
</svg>
