<?xml version="1.0" encoding="utf-8"?>
<!-- Generator: Adobe Illustrator 22.0.1, SVG Export Plug-In . SVG Version: 6.00 Build 0)  -->
<svg version="1.1" id="Capa_1" xmlns="http://www.w3.org/2000/svg" xmlns:xlink="http://www.w3.org/1999/xlink" x="0px" y="0px"
	 viewBox="0 0 512 512" style="enable-background:new 0 0 512 512;" xml:space="preserve">
<style type="text/css">
	.st0{fill:#CD3033;}
</style>
<g>
	<g>
		<path class="st0" d="M469.3,323.1v-0.8c0-18.4-15-33.4-33.4-33.4h-95.3l6.2-138.7c0.1-3.1-1.6-6-4.5-7.3
			c-25-11.4-41.1-36.5-41.1-63.9c0-23.5,11.8-45.3,30.9-58.2V68c0,10.9,8.9,19.8,19.8,19.8h39.1c10.9,0,19.8-8.9,19.8-19.8V20.7
			c19.1,12.9,30.9,34.7,30.9,58.2c0,28.1-16.7,53.5-42.6,64.6c-2.9,1.3-4.8,4.2-4.6,7.4l5.4,104.6c0.2,4.2,3.8,7.5,8.1,7.3
			c4.2-0.2,7.5-3.8,7.3-8.1l-5.1-99.5c28.7-14.5,47-43.9,47-76.4c0-33.8-19.9-64.5-50.8-78.2c-2.4-1.1-5.1-0.8-7.3,0.6
			c-2.2,1.4-3.5,3.8-3.5,6.4v60.3c0,2.4-2,4.4-4.4,4.4h-39.1c-2.4,0-4.4-2-4.4-4.4V7.7c0-2.6-1.3-5-3.5-6.4
			c-2.2-1.4-4.9-1.6-7.3-0.6c-30.9,13.8-50.8,44.5-50.8,78.2c0,31.7,17.7,60.8,45.4,75.6L331,171c-5.3-4.2-12-6.7-19.3-6.8
			c-3.2-0.1-13.9,0.5-22.3,9.3c-7.1,7.4-8.3,16.2-8.3,20.8c0,0.6-0.1,1.3-0.3,1.9c-5.2,15.7-11.9,30.5-20.1,44.1
			c-2.2,3.6-1,8.3,2.6,10.5c3.6,2.2,8.3,1,10.5-2.6c8.7-14.6,15.9-30.4,21.5-47.2c0.7-2.2,1.1-4.4,1.1-6.5c0-2.3,0.6-6.7,4.1-10.3
			c4.1-4.2,9.4-4.5,10.8-4.5c0.1,0,0.2,0,0.3,0c8.8,0,15.9,7.1,15.9,15.9c0,3.4,0,6.6,0,9.6c0,4.8,0.1,9,0,13.1
			c-0.2,12.2-0.8,23-1.3,33.5c-0.7,13.6-1.4,27.7-1.4,44.9c0,4.2,3.4,7.7,7.7,7.7h103.3c10,0,18.1,8.1,18.1,18.1v0.8
			c0,10-8.1,18.1-18.1,18.1h-22.3c-4.2,0-7.7,3.4-7.7,7.7s3.4,7.7,7.7,7.7h22.3c10,0,18.1,8.1,18.1,18.1v0.2
			c0,10-8.1,18.1-18.1,18.1h-22.3c-4.2,0-7.7,3.4-7.7,7.7c0,4.2,3.4,7.7,7.7,7.7h22.3c10,0,18.1,8.1,18.1,18.1v1
			c0,10-8.1,18.1-18.1,18.1h-22.3c-4.2,0-7.7,3.4-7.7,7.7c0,4.2,3.4,7.7,7.7,7.7h22.3c10,0,18.1,8.1,18.1,18.1s-8.1,18.1-18.1,18.1
			h-183c-18,0-35.1-6.9-48.1-19.4l-7.7-7.4V323c10.5-5.8,20.4-12.5,29.6-20c5.6-4.5,10.9-9.4,16-14.5c3-3,3-7.9,0-10.8
			c-3-3-7.9-3-10.8,0c-4.7,4.7-9.6,9.2-14.8,13.4c-6.5,5.3-13.4,10.2-20.7,14.6c-2.5-9.6-11.3-16.8-21.7-16.8H50.4
			c-4.2,0-7.7,3.4-7.7,7.7v207.8c0,4.2,3.4,7.7,7.7,7.7h124.4c11.9,0,21.6-9.3,22.3-21c15.5,13.6,35.1,21,55.9,21h183
			c18.4,0,33.4-15,33.4-33.4c0-10.3-4.7-19.6-12.1-25.7c7.4-6.1,12.1-15.4,12.1-25.7v-1c0-10.3-4.7-19.6-12.1-25.7
			c7.4-6.1,12.1-15.4,12.1-25.7v-0.2c0-10.3-4.7-19.6-12.1-25.7C464.6,342.7,469.3,333.4,469.3,323.1z M181.7,318.3
			C181.7,318.3,181.7,318.3,181.7,318.3v171.3c0,3.9-3.2,7-7,7H58V304.2h116.7c3.9,0,7,3.2,7,7L181.7,318.3L181.7,318.3z"/>
	</g>
</g>
<g>
	<g>
		<circle class="st0" cx="137.3" cy="343.7" r="10.7"/>
	</g>
</g>
</svg>
