<?xml version="1.0" encoding="utf-8"?>
<!-- Generator: Adobe Illustrator 22.0.1, SVG Export Plug-In . SVG Version: 6.00 Build 0)  -->
<svg version="1.1" id="Capa_1" xmlns="http://www.w3.org/2000/svg" xmlns:xlink="http://www.w3.org/1999/xlink" x="0px" y="0px"
	 viewBox="0 0 512 512" style="enable-background:new 0 0 512 512;" xml:space="preserve">
<style type="text/css">
	.st0{fill:#CD3033;}
</style>
<g>
	<path class="st0" d="M269.9,324.2c8.9-0.7,17-5.2,22.2-12.5l79.9-110.5c2.4-3.4,2.1-8.1-0.9-11c-3-3-7.6-3.3-11-0.9l-110.5,79.9
		c-7.2,5.2-11.7,13.3-12.4,22.2s2.5,17.6,8.8,23.9c5.7,5.7,13.4,8.9,21.5,8.9C268.3,324.3,269.1,324.2,269.9,324.2z M254.3,292.8
		c0.3-3.9,2.3-7.5,5.4-9.7l67.4-48.8l-48.7,67.4c-2.3,3.2-5.9,5.2-9.8,5.5c-3.9,0.3-7.7-1.1-10.5-3.9
		C255.4,300.5,254,296.7,254.3,292.8z"/>
	<path class="st0" d="M461.1,166.9c-0.1-0.2-0.1-0.4-0.2-0.5c-0.1-0.2-0.3-0.3-0.4-0.4c-8.6-14.8-18.8-28.6-30.4-41l18.3-18.3
		l12.1,12.1l36.2-36.2l-36.2-36.2l-36.2,36.2l12.1,12.1L418,112.9c-12.5-11.6-26.2-21.8-41-30.4c-0.2-0.1-0.3-0.3-0.4-0.4
		c-0.2-0.1-0.4-0.1-0.5-0.2c-26.4-15.2-56-25.3-87.7-29V42.7h12.8c11.8,0,21.3-9.6,21.3-21.3S312.9,0,301.2,0h-76.8
		C212.6,0,203,9.6,203,21.3s9.6,21.3,21.3,21.3h12.8v9.9c-9.2,1-18.4,2.5-27.5,4.6c-4.6,1-7.5,5.6-6.4,10.2c1,4.6,5.6,7.5,10.2,6.4
		c7.9-1.8,15.8-3.2,23.7-4.1l9.2-0.7c2.8-0.2,5.4-0.4,7.9-0.5v16.9c0,4.7,3.8,8.5,8.5,8.5s8.5-3.8,8.5-8.5V68.5
		c32.1,1.5,62.3,10.1,89.2,24.3l-8.4,14.6c-2.4,4.1-1,9.3,3.1,11.7c1.3,0.8,2.8,1.1,4.3,1.1c3,0,5.8-1.5,7.4-4.3l8.4-14.5
		c26.7,16.9,49.4,39.6,66.3,66.3l-14.5,8.4c-4.1,2.4-5.5,7.6-3.1,11.7c1.6,2.7,4.4,4.3,7.4,4.3c1.5,0,2.9-0.4,4.3-1.1l14.6-8.4
		c14.4,27.3,23,58,24.3,90.6h-16.9c-4.7,0-8.5,3.8-8.5,8.5c0,4.7,3.8,8.5,8.5,8.5h16.9c-1.3,32.6-9.9,63.3-24.3,90.6l-14.6-8.4
		c-4.1-2.4-9.3-1-11.7,3.1c-2.4,4.1-1,9.3,3.1,11.7l14.5,8.4c-16.9,26.7-39.6,49.4-66.3,66.3l-8.4-14.5c-2.4-4.1-7.6-5.5-11.7-3.1
		c-4.1,2.4-5.5,7.6-3.1,11.7l8.4,14.6c-26.9,14.2-57.1,22.8-89.2,24.3v-16.8c0-4.7-3.8-8.5-8.5-8.5s-8.5,3.8-8.5,8.5v16.9
		c-13.6-0.5-27.3-2.2-40.8-5.3c-4.6-1.1-9.2,1.8-10.2,6.4c-1.1,4.6,1.8,9.2,6.4,10.2c17,3.9,34.4,5.9,51.7,5.9c0.4,0,0.8,0,1.2,0
		c0.1,0,0.1,0,0.2,0c0.1,0,0.1,0,0.2,0c41-0.3,79.5-11.4,112.8-30.5c0.3-0.1,0.5-0.2,0.8-0.3c0.2-0.1,0.3-0.3,0.4-0.4
		c34.5-20.1,63.3-48.9,83.4-83.3c0.2-0.2,0.4-0.4,0.5-0.7c0.1-0.2,0.1-0.4,0.2-0.5c19.5-33.8,30.7-72.9,30.7-114.7
		S480.6,200.7,461.1,166.9z M460.5,70.4l12.1,12.1l-12.1,12.1l-12.1-12.1L460.5,70.4z M254.2,51.4V25.6h-29.9
		c-2.3,0-4.3-1.9-4.3-4.3s1.9-4.3,4.3-4.3h76.8c2.3,0,4.3,1.9,4.3,4.3s-1.9,4.3-4.3,4.3h-29.9v25.8c-3-0.1-5.8-0.2-8.5-0.2
		c-0.2,0-0.5,0-0.8,0c-0.2,0-0.4,0-0.6,0c-1.4,0-2.8,0.1-4.2,0.1C256.2,51.3,255.3,51.3,254.2,51.4z"/>
	<path class="st0" d="M186,119.5h-42.7c-4.7,0-8.5,3.8-8.5,8.5c0,4.7,3.8,8.5,8.5,8.5H186c4.7,0,8.5-3.8,8.5-8.5
		C194.5,123.3,190.7,119.5,186,119.5z"/>
	<path class="st0" d="M186,179.2h-85.3c-4.7,0-8.5,3.8-8.5,8.5c0,4.7,3.8,8.5,8.5,8.5H186c4.7,0,8.5-3.8,8.5-8.5
		C194.5,183,190.7,179.2,186,179.2z"/>
	<path class="st0" d="M186,238.9H58c-4.7,0-8.5,3.8-8.5,8.5c0,4.7,3.8,8.5,8.5,8.5h128c4.7,0,8.5-3.8,8.5-8.5
		C194.5,242.7,190.7,238.9,186,238.9z"/>
	<path class="st0" d="M186,298.7H23.8c-4.7,0-8.5,3.8-8.5,8.5c0,4.7,3.8,8.5,8.5,8.5H186c4.7,0,8.5-3.8,8.5-8.5
		C194.5,302.5,190.7,298.7,186,298.7z"/>
	<path class="st0" d="M186,358.4H75c-4.7,0-8.5,3.8-8.5,8.5c0,4.7,3.8,8.5,8.5,8.5H186c4.7,0,8.5-3.8,8.5-8.5
		C194.5,362.2,190.7,358.4,186,358.4z"/>
	<path class="st0" d="M186,418.1h-59.7c-4.7,0-8.5,3.8-8.5,8.5s3.8,8.5,8.5,8.5H186c4.7,0,8.5-3.8,8.5-8.5S190.7,418.1,186,418.1z"
		/>
</g>
</svg>
